# xmcd
#
# Track frame offsets:
#	150
#	29329
#	60480
#	81761
#	111545
#	138965
#	165065
#	191480
#	217241
#	239932
#	260660
#	283286
#	302530
#
# Disc length: 4416 seconds
# Revision: 0
# Processed by: cddbd v1.5.2PL0 Copyright (c) Steve Scherf et al.
# Submitted via: dBpowerAMP V12.0
#
DISCID=c2113e0d
DTITLE=Various Artist - The Very Best Of Full Time Volume Tre
DYEAR=1900
DGENRE=Dance Classics
TTITLE0=Kano - Another Life
TTITLE1=Vin Zee - Funy Be Bop
TTITLE2=Orlando Johnson and Trance - Sombody Save Me
TTITLE3=Jimmy Ross - S.O.S. Of Love
TTITLE4=Batadram - Passion
TTITLE5=Kano - Queen Of Witches
TTITLE6=Ago - For You
TTITLE7=Karen Jones - To The Rock Groove
TTITLE8=Peter Richard - Walkin On The Neon
TTITLE9=The Creatures - Maybe One Day
TTITLE10=Rainbow Team - Bite The Apple
TTITLE11=DFX - Relax Your Body
TTITLE12=Keith Farrows - Pride And Lovers
EXTD=
EXTT0=
EXTT1=
EXTT2=
EXTT3=
EXTT4=
EXTT5=
EXTT6=
EXTT7=
EXTT8=
EXTT9=
EXTT10=
EXTT11=
EXTT12=
PLAYORDER=
